<svg xmlns="http://www.w3.org/2000/svg" width="256" height="256" viewBox="0 0 100 100"><rect width="100" height="100" rx="20" fill="#f0b953"></rect><path fill="#fff" d="M33.27 78.17L33.27 78.17Q32.82 78.61 31.58 78.97Q30.33 79.33 28.82 79.33L28.82 79.33Q27.13 79.33 25.79 78.84Q24.46 78.35 24.01 77.37L24.01 77.37Q22.85 75.05 21.30 71.40Q19.74 67.76 18.00 63.26Q16.27 58.77 14.44 53.78Q12.62 48.80 10.93 43.90Q9.24 39.01 7.72 34.42Q6.21 29.84 5.14 26.19L5.14 26.19Q5.68 25.48 6.75 24.86Q7.81 24.23 9.15 24.23L9.15 24.23Q10.84 24.23 11.64 25.04Q12.44 25.84 12.98 27.44L12.98 27.44Q16.98 39.10 20.63 49.96Q24.28 60.81 28.64 72.03L28.64 72.03L29.00 72.03Q30.95 66.95 33.05 61.21Q35.14 55.47 37.14 49.38Q39.14 43.28 41.06 37.05Q42.97 30.82 44.48 24.86L44.48 24.86Q45.64 24.23 47.51 24.23L47.51 24.23Q49.11 24.23 50.09 25.04Q51.07 25.84 51.07 27.44L51.07 27.44Q51.07 28.77 50.04 32.47Q49.02 36.16 47.42 41.06Q45.82 45.95 43.81 51.56Q41.81 57.16 39.85 62.33Q37.90 67.49 36.12 71.76Q34.34 76.03 33.27 78.17ZM68.25 78.70L68.25 78.70Q67.80 78.88 66.91 79.10Q66.02 79.33 64.95 79.33L64.95 79.33Q61.13 79.33 61.13 76.12L61.13 76.12L61.13 21.21Q61.57 21.03 62.50 20.81Q63.44 20.59 64.51 20.59L64.51 20.59Q68.25 20.59 68.25 23.79L68.25 23.79L68.25 55.83L87.74 36.96Q89.87 37.05 91.07 37.98Q92.28 38.92 92.28 40.43L92.28 40.43Q92.28 41.68 91.47 42.61Q90.67 43.55 89.34 44.79L89.34 44.79L75.01 57.34L94.86 75.14Q94.68 77.10 93.65 78.26Q92.63 79.41 90.94 79.41L90.94 79.41Q89.60 79.41 88.49 78.75Q87.38 78.08 86.22 76.83L86.22 76.83L68.25 58.77L68.25 78.70Z"></path></svg>